<?xml version="1.0" standalone="no"?>
<!DOCTYPE svg PUBLIC "-//W3C//DTD SVG 20010904//EN"
 "http://www.w3.org/TR/2001/REC-SVG-20010904/DTD/svg10.dtd">
<svg version="1.0" xmlns="http://www.w3.org/2000/svg"
 width="260.000000pt" height="260.000000pt" viewBox="0 0 260.000000 260.000000"
 preserveAspectRatio="xMidYMid meet">
<metadata>
Created by potrace 1.11, written by Peter Selinger 2001-2013
</metadata>
<g transform="translate(0.000000,260.000000) scale(0.100000,-0.100000)"
fill="#000000" stroke="none">
<path d="M0 1300 l0 -1300 1300 0 1300 0 0 1300 0 1300 -1300 0 -1300 0 0
-1300z m1623 356 l197 -191 -2 -319 -3 -319 -265 2 c-146 1 -266 4 -268 6 -2
2 53 92 122 202 l126 198 -115 3 -115 3 0 29 0 30 171 0 c133 0 170 -3 166
-12 -3 -7 -59 -98 -125 -203 -67 -104 -120 -190 -119 -191 1 -1 86 -4 190 -8
l187 -6 -1 282 0 283 -235 225 c-130 124 -238 224 -240 223 -3 -1 -111 -104
-240 -228 l-234 -227 0 -279 0 -279 125 0 125 0 0 180 0 180 -40 0 c-38 0 -40
2 -40 30 0 28 2 30 40 30 l40 0 0 90 0 90 35 0 35 0 0 -90 0 -90 50 0 c49 0
50 -1 50 -30 0 -29 -1 -30 -50 -30 l-50 0 0 -204 0 -204 -177 -4 c-98 -2 -181
-2 -185 0 -5 2 -8 146 -8 320 l0 317 263 251 262 252 65 -61 c36 -33 154 -146
263 -251z"/>
</g>
</svg>
