<?xml version="1.0" standalone="no"?>
<!DOCTYPE svg PUBLIC "-//W3C//DTD SVG 20010904//EN"
 "http://www.w3.org/TR/2001/REC-SVG-20010904/DTD/svg10.dtd">
<svg version="1.0" xmlns="http://www.w3.org/2000/svg"
 width="260.000000pt" height="260.000000pt" viewBox="0 0 260.000000 260.000000"
 preserveAspectRatio="xMidYMid meet">
<metadata>
Created by potrace 1.11, written by Peter Selinger 2001-2013
</metadata>
<g transform="translate(0.000000,260.000000) scale(0.100000,-0.100000)"
fill="#000000" stroke="none">
<path d="M1110 2495 c-249 -39 -485 -162 -668 -347 -345 -349 -446 -870 -255
-1318 149 -347 450 -606 818 -702 112 -29 131 -31 295 -31 164 0 183 2 295 31
739 193 1123 1006 796 1687 -65 136 -133 232 -238 338 -274 275 -660 402
-1043 342z m430 -50 c112 -25 184 -51 300 -112 329 -170 555 -483 615 -856 81
-497 -192 -1014 -651 -1231 -565 -269 -1234 -50 -1532 502 -235 435 -172 958
159 1333 138 156 367 297 569 350 159 41 387 47 540 14z"/>
<path d="M780 1730 l0 -170 -80 0 -80 0 0 -50 0 -50 80 0 80 0 0 -400 0 -400
55 0 55 0 0 400 0 400 95 0 95 0 0 50 0 50 -95 0 -95 0 0 170 0 170 -55 0 -55
0 0 -170z"/>
<path d="M1380 1510 l0 -50 230 -2 230 -3 -250 -393 c-137 -216 -250 -395
-250 -397 0 -3 153 -5 340 -5 l340 0 0 50 0 50 -244 2 -245 3 254 398 254 397
-330 0 -329 0 0 -50z"/>
</g>
</svg>
